<svg width="512" height="512" viewBox="0 0 512 512" fill="none" xmlns="http://www.w3.org/2000/svg">
<path fill-rule="evenodd" clip-rule="evenodd" d="M512 0H0V512H512V421.668C492.804 433.223 469.785 439 442.942 439C423.855 439 401.923 436.49 377.144 431.469C352.7 426.448 339.138 423.938 336.459 423.938C331.771 423.938 327.251 428.958 322.898 439H315.866L310.843 319.505H319.382C334.115 348.626 352.867 374.064 375.637 395.821C398.742 417.578 423.018 428.456 448.467 428.456C465.21 428.456 479.943 423.938 492.667 414.9C504.233 406.897 510.677 395.349 512 380.257V368.302C510.621 352.775 503.674 340.694 491.161 332.057C477.432 322.35 457.676 313.982 431.892 306.953C406.443 299.589 387.859 293.229 376.139 287.874C364.754 282.518 353.872 275.489 343.491 266.786C322.73 249.381 312.35 222.436 312.35 185.951C312.35 156.161 322.898 130.555 343.993 109.133C365.424 87.7111 394.556 77 431.39 77C449.137 77 467.554 79.6778 486.64 85.0333C497.322 87.7947 505.775 89.7967 512 91.0394V0ZM512 145.168C503.427 133.322 494.639 122.984 485.636 114.154C468.223 96.4138 449.137 87.5437 428.376 87.5437C407.95 87.5437 392.045 92.3971 380.66 102.104C369.275 111.476 363.582 124.196 363.582 140.262C363.582 155.994 370.279 168.211 383.673 176.914C397.402 185.282 414.145 192.144 433.901 197.499C453.657 202.855 466.549 206.537 472.576 208.545C478.939 210.553 486.64 213.399 495.681 217.08C501.942 219.316 507.382 221.7 512 224.234V145.168ZM307.582 82.5229H144.342V92.0624H182.012V345.111C182.012 380.257 180.003 403.185 175.985 413.896C172.302 424.272 163.763 429.46 150.369 429.46C143.002 429.46 136.975 427.954 132.287 424.942C127.934 421.595 125.757 417.745 125.757 413.394C125.757 408.708 127.264 403.854 130.278 398.834H149.867C153.55 388.792 155.392 378.918 155.392 369.211C155.392 359.169 151.876 350.634 144.844 343.605C138.147 336.576 127.766 333.061 113.703 333.061C99.9738 333.061 89.0911 337.245 81.0547 345.613C73.0182 353.646 69 364.859 69 379.252C69 397.997 76.869 412.557 92.607 422.933C108.68 433.31 130.278 438.498 157.401 438.498C198.253 438.498 228.892 428.289 249.318 407.871C269.743 387.118 279.956 354.148 279.956 308.961V92.0624H307.582V82.5229Z" fill="white"/>
</svg>
