<svg width="512" height="512" viewBox="0 0 512 512" fill="none" xmlns="http://www.w3.org/2000/svg">
<rect width="512" height="512" fill="#163553"/>
<path d="M253.8 85.6001C268.2 85.6001 281 87.8001 292.2 92.2001C303.4 96.6001 312.4 101.8 319.2 107.8C323.6 111 327.2 112.6 330 112.6C337.2 112.6 341.6 103.8 343.2 86.2001H357C355.4 105.8 354.6 139.8 354.6 188.2H340.8C336.4 161.8 327.8 140 315 122.8C302.6 105.6 284 97.0001 259.2 97.0001C244.8 97.0001 233 101.2 223.8 109.6C214.6 117.6 210 128.8 210 143.2C210 157.2 214.8 169 224.4 178.6C234 187.8 249.4 199 270.6 212.2C274.2 214.2 279.6 217.6 286.8 222.4C305.2 234.4 320 245 331.2 254.2C342.4 263.4 351.4 274 358.2 286C365.4 298 369 311.8 369 327.4C369 353.8 359 374.4 339 389.2C319.4 404 295.2 411.4 266.4 411.4C248.4 411.4 232.6 408.6 219 403C210.2 398.6 202 393.2 194.4 386.8C192.8 385.2 191 384.4 189 384.4C186.2 384.4 183.6 386.4 181.2 390.4C179.2 394.4 177.6 400 176.4 407.2H162.6C164.2 384.4 165 344.4 165 287.2H178.8C183.2 324.8 191.2 353 202.8 371.8C214.4 390.2 234.2 399.4 262.2 399.4C276.2 399.4 288.6 394.8 299.4 385.6C310.2 376.4 315.6 362 315.6 342.4C315.6 326.8 310.2 313.6 299.4 302.8C289 292 271.8 279 247.8 263.8C228.2 251.4 213 241.2 202.2 233.2C191.8 225.2 183 215.4 175.8 203.8C168.6 192.2 165 178.6 165 163C165 137.8 173.4 118.6 190.2 105.4C207 92.2001 228.2 85.6001 253.8 85.6001Z" fill="white"/>
</svg>
